<?xml version="1.0" encoding="UTF-8" standalone="no"?> <svg id="Layer_1" data-name="Layer 1" xmlns="http://www.w3.org/2000/svg" viewBox="0 0 128 128"><defs><style>.cls-1{fill:#2b77c0;}.cls-2{fill:#3b4551;}</style></defs><title>a</title><circle class="cls-1" cx="64" cy="11.982" r="9.45782"/><circle class="cls-1" cx="64" cy="116.018" r="9.45782"/><circle class="cls-1" cx="11.982" cy="64" r="9.45782"/><circle class="cls-1" cx="116.018" cy="64" r="9.45782"/><circle class="cls-1" cx="27.11442" cy="27.11457" r="9.45782"/><circle class="cls-1" cx="100.88543" cy="100.88558" r="9.45782"/><circle class="cls-1" cx="27.11442" cy="100.88558" r="9.45782"/><circle class="cls-1" cx="100.88543" cy="27.11457" r="9.45782"/><path class="cls-2" d="M42.77937,63.168H48.7641A1.10892,1.10892,0,0,1,49.873,64.27694v18.878A1.10906,1.10906,0,0,1,48.764,84.264H42.77951a1.10906,1.10906,0,0,1-1.10906-1.10906v-18.878A1.10892,1.10892,0,0,1,42.77937,63.168Z"/><path class="cls-2" d="M82.49871,56.97937h-11.101l.02713-.08933.46368-1.49121.45127-1.4495,1.34963-4.34012.65721-2.1171a3.2486,3.2486,0,0,0,.08731-.33265v-.00419a3.81862,3.81862,0,0,0,.09366-.85059,3.88142,3.88142,0,0,0-.06249-.69661,3.99731,3.99731,0,0,0-7.46584-1.18122L56.19776,61.39656a10.75358,10.75358,0,0,1-3.65593,3.63933l-.00621.002a1.468,1.468,0,0,0-.74871,1.27271V82.79586a1.4509,1.4509,0,0,0,1.00284,1.382q.04957.016.10073.02857c.09987.02439,5.14107.95623,5.14107.95623l3.06135.3478a28.54421,28.54421,0,0,0,3.22573.1827H77.72a4.33523,4.33523,0,0,0,4.24517-3.45547L86.3294,61.18023A4.18518,4.18518,0,0,0,82.49871,56.97937Z"/></svg>